<svg id="Capa_1" enable-background="new 0 0 512 512" height="512" viewBox="0 0 512 512" width="512" xmlns="http://www.w3.org/2000/svg"><g><g><path d="m361.375 135.498h-30v-44.808c0-16.855-13.713-30.567-30.567-30.567h-89.615c-16.854 0-30.567 13.712-30.567 30.567v44.808h-30v-44.808c0-33.397 27.171-60.567 60.567-60.567h89.615c33.396 0 60.567 27.17 60.567 60.567z" fill="#464b52"/></g><path d="m300.808 30.123h-44.808v30h44.808c16.854 0 30.567 13.712 30.567 30.567v44.808h30v-44.808c0-33.397-27.171-60.567-60.567-60.567z" fill="#292b2f"/><g><path d="m438.12 481.877h-364.24c-40.737 0-73.88-33.143-73.88-73.88v-272.5s131.383 165.75 256 165.75 256-165.75 256-165.75v272.5c0 40.738-33.143 73.88-73.88 73.88z" fill="#b37236"/></g><path d="m438.12 481.877c40.737 0 73.88-33.143 73.88-73.88v-272.5s-131.383 165.75-256 165.75v180.63z" fill="#95623a"/><g><path d="m256 331.248c-67.598 0-131.314-19.866-179.412-55.938-49.389-37.041-76.588-86.694-76.588-139.812 0-8.284 6.716-15 15-15h482c8.284 0 15 6.716 15 15 0 53.118-27.199 102.771-76.588 139.812-48.098 36.071-111.814 55.938-179.412 55.938z" fill="#c99251"/></g><path d="m497 120.498h-241v210.75c67.598 0 131.314-19.866 179.412-55.938 49.389-37.041 76.588-86.694 76.588-139.812 0-8.285-6.716-15-15-15z" fill="#bd8041"/><path d="m305.035 252.213h-98.07c-8.284 0-15 6.716-15 15v49.035c0 35.309 28.726 64.035 64.035 64.035s64.035-28.726 64.035-64.035v-49.035c0-8.284-6.716-15-15-15z" fill="#faf139"/><path d="m305.035 252.213h-49.035v128.069c35.31 0 64.035-28.726 64.035-64.035v-49.035c0-8.283-6.716-14.999-15-14.999z" fill="#f5d953"/></g></svg>