<svg id="Capa_1" enable-background="new 0 0 512 512" height="512" viewBox="0 0 512 512" width="512" xmlns="http://www.w3.org/2000/svg"><g><g><g><g><g><g><g><g><g><g><g><g><g><g><g><g><g><g><g><g><circle cx="256" cy="256" fill="#c2db4b" r="256"/></g></g></g></g></g></g></g></g></g></g></g></g></g></g></g></g></g></g></g><path d="m132.957 87.913 199.782 199.782-199.782 165.699 47.174 47.174c23.974 7.428 49.453 11.432 75.869 11.432 141.385 0 256-114.615 256-256 0-26.416-4.004-51.895-11.433-75.869l-121.524-121.525z" fill="#9fbd28"/><g><g><g><g><g><g><g><path d="m256 443.261-32.142 10.133h-83.313v-386.466h115.455l57.728 221.07z" fill="#8078be"/></g></g></g></g></g><g><g><path d="m371.455 453.394h-83.313l-32.142-10.133v-376.333h115.455z" fill="#514899"/></g></g></g><g><g><g><g><g><path d="m256 87.913h-123.043v-29.307h123.043l61.521 16.765z" fill="#514899"/></g></g></g></g><g><g><path d="m256 58.606h123.043v29.306h-123.043z" fill="#39326c"/></g></g></g><g><g><g><g><g><path d="m256 394.135h-49v-39.331h49l24.5 22.499z" fill="#514899"/></g></g></g></g><g><g><path d="m256 354.804h49v39.332h-49z" fill="#39326c"/></g></g></g><g><g><g><g><g><path d="m216.444 453.394h-83.487v-19.115h103.041z" fill="#514899"/></g></g></g></g><g><g><path d="m379.043 453.394h-83.487l-19.554-19.115h103.041z" fill="#39326c"/></g></g></g><g><g><g><g><g><path d="m256 453.394h-39.556v-88.96h39.556l19.778 50.887z" fill="#adcfff"/></g></g></g></g><g><g><path d="m256 364.434h39.556v88.96h-39.556z" fill="#8bbbff"/></g></g></g><g><path d="m166.806 364.434h29.473v29.702h-29.473z" fill="#adcfff"/><path d="m315.72 364.434h29.473v29.702h-29.473z" fill="#4894ff"/></g><g><path d="m166.806 312.851h29.473v29.702h-29.473z" fill="#adcfff"/><path d="m216.444 312.851h29.473v29.702h-29.473z" fill="#adcfff"/><g fill="#4894ff"><path d="m315.72 312.851h29.473v29.702h-29.473z"/><path d="m266.082 312.851h29.473v29.702h-29.473z"/></g></g><g><path d="m166.806 263.646h29.473v29.702h-29.473z" fill="#adcfff"/><path d="m216.444 263.646h29.473v29.702h-29.473z" fill="#adcfff"/><g fill="#4894ff"><path d="m315.72 263.646h29.473v29.702h-29.473z"/><path d="m266.082 263.646h29.473v29.702h-29.473z"/></g></g><g><path d="m166.806 214.441h29.473v29.702h-29.473z" fill="#adcfff"/><path d="m216.444 214.441h29.473v29.702h-29.473z" fill="#adcfff"/><g fill="#4894ff"><path d="m315.72 214.441h29.473v29.702h-29.473z"/><path d="m266.082 214.441h29.473v29.702h-29.473z"/></g></g><g><path d="m166.806 165.236h29.473v29.702h-29.473z" fill="#adcfff"/><path d="m216.444 165.236h29.473v29.702h-29.473z" fill="#adcfff"/><g fill="#4894ff"><path d="m315.72 165.236h29.473v29.702h-29.473z"/><path d="m266.082 165.236h29.473v29.702h-29.473z"/></g></g><g><path d="m166.806 116.031h29.473v29.702h-29.473z" fill="#adcfff"/><path d="m216.444 116.031h29.473v29.702h-29.473z" fill="#adcfff"/><g fill="#4894ff"><path d="m315.72 116.031h29.473v29.702h-29.473z"/><path d="m266.082 116.031h29.473v29.702h-29.473z"/></g></g></g></g></svg>