<svg id="Capa_1" enable-background="new 0 0 512 512" height="512" viewBox="0 0 512 512" width="512" xmlns="http://www.w3.org/2000/svg"><g><g><g><g><g><g><g><g><g><g><g><path d="m339.185 88.085h-239.66v-69.7c0-6.012 4.873-10.885 10.885-10.885h217.89c6.012 0 10.885 4.873 10.885 10.885z" fill="#b9cbea"/><path d="m328.3 7.5h-63.768c6.012 0 10.885 4.874 10.885 10.885v69.7h63.768v-69.7c0-6.011-4.873-10.885-10.885-10.885z" fill="#a2b9e2"/><g><g><g><g><path d="m362.012 482.473h-285.314v-411.247c0-10.336 8.379-18.715 18.715-18.715h247.884c10.336 0 18.715 8.379 18.715 18.715z" fill="#d8e2f1"/></g></g></g></g><path d="m343.297 52.511h-63.311c10.336 0 18.715 8.379 18.715 18.715v411.247h63.311v-411.247c0-10.336-8.379-18.715-18.715-18.715z" fill="#b9cbea"/></g></g></g><g fill="#bed8fb"><path d="m115.846 130.664v-32.092c0-4.24 3.438-7.678 7.678-7.678h32.091c4.24 0 7.678 3.438 7.678 7.678v32.091c0 4.24-3.438 7.678-7.678 7.678h-32.091c-4.241.001-7.678-3.437-7.678-7.677z"/><path d="m195.632 130.664v-32.092c0-4.24 3.438-7.678 7.678-7.678h32.091c4.24 0 7.678 3.438 7.678 7.678v32.091c0 4.24-3.438 7.678-7.678 7.678h-32.091c-4.241.001-7.678-3.437-7.678-7.677z"/><path d="m275.417 130.664v-32.092c0-4.24 3.438-7.678 7.678-7.678h32.091c4.24 0 7.678 3.438 7.678 7.678v32.091c0 4.24-3.438 7.678-7.678 7.678h-32.091c-4.24.001-7.678-3.437-7.678-7.677z"/><path d="m115.846 213.123v-32.091c0-4.24 3.438-7.678 7.678-7.678h32.091c4.24 0 7.678 3.438 7.678 7.678v32.091c0 4.24-3.438 7.678-7.678 7.678h-32.091c-4.241 0-7.678-3.437-7.678-7.678z"/><path d="m195.632 213.123v-32.091c0-4.24 3.438-7.678 7.678-7.678h32.091c4.24 0 7.678 3.438 7.678 7.678v32.091c0 4.24-3.438 7.678-7.678 7.678h-32.091c-4.241 0-7.678-3.437-7.678-7.678z"/><path d="m275.417 213.123v-32.091c0-4.24 3.438-7.678 7.678-7.678h32.091c4.24 0 7.678 3.438 7.678 7.678v32.091c0 4.24-3.438 7.678-7.678 7.678h-32.091c-4.24 0-7.678-3.437-7.678-7.678z"/><path d="m115.846 295.583v-32.091c0-4.24 3.438-7.678 7.678-7.678h32.091c4.24 0 7.678 3.438 7.678 7.678v32.091c0 4.24-3.438 7.678-7.678 7.678h-32.091c-4.241 0-7.678-3.438-7.678-7.678z"/><path d="m195.632 295.583v-32.091c0-4.24 3.438-7.678 7.678-7.678h48.769v47.447h-48.769c-4.241 0-7.678-3.438-7.678-7.678z"/></g></g></g></g></g><path d="m124.238 367.168h72.973v115.305h-72.973z" fill="#f4fbff"/></g></g><g><path d="m341.711 367.144h40.806v125.065h-40.806z" fill="#cc9675"/><g><path d="m464.378 382.711h-212.74c-6.241 0-11.3-5.059-11.3-11.3v-104.297c0-6.241 5.059-11.3 11.3-11.3h212.74c6.241 0 11.3 5.059 11.3 11.3v104.296c.001 6.241-5.059 11.301-11.3 11.301z" fill="#ffe07d"/><path d="m464.378 255.813h-63.327c6.241 0 11.3 5.059 11.3 11.3v104.297c0 6.241-5.059 11.3-11.3 11.3h63.327c6.241 0 11.3-5.059 11.3-11.3v-104.296c.001-6.241-5.059-11.301-11.3-11.301z" fill="#ffd064"/></g></g><path d="m433.588 504.5h-381.018c-8.974 0-16.249-7.275-16.249-16.249 0-8.974 7.275-16.249 16.249-16.249h381.018c8.974 0 16.249 7.275 16.249 16.249 0 8.974-7.275 16.249-16.249 16.249z" fill="#365e7d"/></g><g><path d="m293.88 284.016c-4.142 0-7.5 3.357-7.5 7.5v45.451c0 1.507-.763 2.865-1.99 3.547-2.298 1.278-5.173-1.412-5.294-1.527l.072.071-10.64 10.572c2.796 2.814 8.211 6.285 14.542 6.285 2.741 0 5.654-.65 8.6-2.286 5.989-3.325 9.71-9.71 9.71-16.662v-45.451c0-4.143-3.358-7.5-7.5-7.5z"/><path d="m427.613 282.64h-18.375c-4.142 0-7.5 3.357-7.5 7.5v29.136.04 29.068c0 1.995.795 3.907 2.208 5.315 1.406 1.399 3.309 2.185 5.292 2.185h.033s14.405-.063 18.375-.063c12.143 0 22.022-9.879 22.022-22.022 0-5.571-2.083-10.662-5.507-14.545 3.424-3.887 5.507-8.982 5.507-14.558.001-12.162-9.893-22.056-22.055-22.056zm.034 58.18c-2.024 0-6.749.017-10.909.032v-14.068c.786-.003 1.592-.006 2.397-.009h8.512c3.872 0 7.022 3.15 7.022 7.022s-3.15 7.023-7.022 7.023zm-.034-29.068c-1.645 0-5.059.011-8.506.023h-2.369v-14.135h10.875c3.891 0 7.056 3.165 7.056 7.056s-3.165 7.056-7.056 7.056z"/><path d="m351.237 284.016c-19.814 0-35.934 16.12-35.934 35.934s16.12 35.935 35.934 35.935 35.935-16.12 35.935-35.935c-.001-19.814-16.121-35.934-35.935-35.934zm0 56.868c-11.543 0-20.934-9.392-20.934-20.935s9.391-20.934 20.934-20.934 20.935 9.391 20.935 20.934-9.392 20.935-20.935 20.935z"/><path d="m464.378 248.313h-212.74-48.328c-8.369 0-15.178 6.809-15.178 15.178v32.092c0 8.369 6.809 15.178 15.178 15.178h29.527v60.649c0 10.367 8.434 18.801 18.8 18.801h82.573v74.292h-129.5v-89.835h.892c4.142 0 7.5-3.357 7.5-7.5s-3.358-7.5-7.5-7.5h-89.757c-4.142 0-7.5 3.357-7.5 7.5s3.358 7.5 7.5 7.5h.892v24.832c0 4.143 3.358 7.5 7.5 7.5s7.5-3.357 7.5-7.5v-24.832h57.973v89.835h-57.973v-29.336c0-4.143-3.358-7.5-7.5-7.5s-7.5 3.357-7.5 7.5v29.336h-32.54v-393.277c0-6.184 5.031-11.215 11.215-11.215h247.884c6.184 0 11.215 5.031 11.215 11.215v149.575c0 4.143 3.358 7.5 7.5 7.5s7.5-3.357 7.5-7.5v-149.575c0-13.306-9.967-24.321-22.827-25.989v-26.852c.002-10.138-8.246-18.385-18.384-18.385h-217.89c-10.138 0-18.385 8.247-18.385 18.385v26.852c-12.859 1.668-22.827 12.682-22.827 25.989v393.277h-16.628c-13.095 0-23.749 10.653-23.749 23.749 0 13.095 10.654 23.748 23.749 23.748h381.019c13.095 0 23.749-10.653 23.749-23.749 0-13.095-10.653-23.748-23.749-23.748h-43.571v-74.292h74.361c10.367 0 18.8-8.434 18.8-18.801v-104.297c0-10.366-8.434-18.8-18.801-18.8zm-231.541 18.8v28.647h-29.527c-.098 0-.178-.08-.178-.178v-32.092c0-.098.08-.178.178-.178h29.914c-.253 1.229-.387 2.5-.387 3.801zm-125.812-248.728c0-1.866 1.519-3.385 3.385-3.385h217.89c1.867 0 3.385 1.519 3.385 3.385v26.626h-224.66zm326.563 461.118c4.824 0 8.749 3.925 8.749 8.749 0 4.823-3.925 8.748-8.749 8.748h-381.018c-4.824 0-8.749-3.925-8.749-8.749 0-4.823 3.925-8.748 8.749-8.748zm-84.377-15v-74.292h25.806v74.292zm118.968-93.093c0 2.096-1.705 3.801-3.8 3.801h-212.741c-2.096 0-3.8-1.705-3.8-3.801v-104.297c0-2.095 1.705-3.8 3.8-3.8h212.741c2.096 0 3.8 1.705 3.8 3.8z"/><path d="m170.793 98.572c0-8.369-6.809-15.178-15.178-15.178h-32.091c-8.369 0-15.178 6.809-15.178 15.178v32.092c0 8.369 6.809 15.178 15.178 15.178h32.091c8.369 0 15.178-6.809 15.178-15.178zm-15 32.092c0 .098-.08.178-.178.178h-32.091c-.098 0-.178-.08-.178-.178v-32.092c0-.098.08-.178.178-.178h32.091c.098 0 .178.08.178.178z"/><path d="m250.579 98.572c0-8.369-6.809-15.178-15.178-15.178h-32.091c-8.369 0-15.178 6.809-15.178 15.178v32.092c0 8.369 6.809 15.178 15.178 15.178h32.092c8.369 0 15.178-6.809 15.178-15.178v-32.092zm-15 32.092c0 .098-.08.178-.178.178h-32.091c-.098 0-.178-.08-.178-.178v-32.092c0-.098.08-.178.178-.178h32.092c.098 0 .178.08.178.178v32.092z"/><path d="m330.364 98.572c0-8.369-6.809-15.178-15.178-15.178h-32.091c-8.369 0-15.178 6.809-15.178 15.178v32.092c0 8.369 6.809 15.178 15.178 15.178h32.091c8.369 0 15.178-6.809 15.178-15.178zm-15 32.092c0 .098-.08.178-.178.178h-32.091c-.098 0-.178-.08-.178-.178v-32.092c0-.098.08-.178.178-.178h32.091c.098 0 .178.08.178.178z"/><path d="m170.793 181.032c0-8.369-6.809-15.179-15.178-15.179h-32.091c-8.369 0-15.178 6.81-15.178 15.179v32.091c0 8.369 6.809 15.178 15.178 15.178h32.091c8.369 0 15.178-6.809 15.178-15.178zm-15 32.091c0 .098-.08.178-.178.178h-32.091c-.098 0-.178-.08-.178-.178v-32.091c0-.099.08-.179.178-.179h32.091c.098 0 .178.08.178.179z"/><path d="m235.401 165.854h-32.091c-8.369 0-15.178 6.81-15.178 15.179v32.091c0 8.369 6.809 15.178 15.178 15.178h32.092c8.369 0 15.178-6.809 15.178-15.178v-32.091c-.001-8.37-6.809-15.179-15.179-15.179zm.178 47.269c0 .098-.08.178-.178.178h-32.091c-.098 0-.178-.08-.178-.178v-32.091c0-.099.08-.179.178-.179h32.092c.098 0 .178.08.178.179v32.091z"/><path d="m315.187 165.854h-32.091c-8.369 0-15.178 6.81-15.178 15.179v32.091c0 8.369 6.809 15.178 15.178 15.178h32.091c8.369 0 15.178-6.809 15.178-15.178v-32.091c-.001-8.37-6.809-15.179-15.178-15.179zm.177 47.269c0 .098-.08.178-.178.178h-32.091c-.098 0-.178-.08-.178-.178v-32.091c0-.099.08-.179.178-.179h32.091c.098 0 .178.08.178.179z"/><path d="m155.615 248.313h-32.091c-8.369 0-15.178 6.809-15.178 15.178v32.092c0 8.369 6.809 15.178 15.178 15.178h32.091c8.369 0 15.178-6.809 15.178-15.178v-32.092c0-8.369-6.809-15.178-15.178-15.178zm.178 47.27c0 .098-.08.178-.178.178h-32.091c-.098 0-.178-.08-.178-.178v-32.092c0-.098.08-.178.178-.178h32.091c.098 0 .178.08.178.178z"/></g></g></svg>