<svg height="512" viewBox="0 0 512 512" width="512" xmlns="http://www.w3.org/2000/svg"><g id="Flat"><rect fill="#0093b9" height="376" rx="24" width="272" x="144" y="56"/><path d="m176 88h208v312h-208z" fill="#e3e4e2"/><path d="m336 88h-112v-32h32l-8-32h64l-8 32h32z" fill="#57c3c1"/><g fill="#b2b1b4"><path d="m240 160h-32a8 8 0 0 1 -8-8v-32a8 8 0 0 1 8-8h32a8 8 0 0 1 8 8v32a8 8 0 0 1 -8 8zm-24-16h16v-16h-16z"/><path d="m240 232h-32a8 8 0 0 1 -8-8v-32a8 8 0 0 1 8-8h32a8 8 0 0 1 8 8v32a8 8 0 0 1 -8 8zm-24-16h16v-16h-16z"/><path d="m264 112h16v16h-16z"/><path d="m264 144h96v16h-96z"/><path d="m296 112h64v16h-64z"/><path d="m264 184h16v16h-16z"/><path d="m264 216h96v16h-96z"/><path d="m296 184h64v16h-64z"/></g><path d="m320 488h-288v-256h144v128h144z" fill="#f8bc1e"/><path d="m224 360h48v48h-48z" fill="#f9da62"/><path d="m320 368h-12a12 12 0 0 0 -12 12v20.305a63.7 63.7 0 0 1 -63.695 63.695h-36.305a12 12 0 0 0 -12 12v12h136z" fill="#f5a922"/><path d="m280 448h16v16h-16z" fill="#f79726"/><path d="m80 360h48v48h-48z" fill="#f9da62"/><path d="m176 368h-12a12 12 0 0 0 -12 12v20.305a63.7 63.7 0 0 1 -63.695 63.695h-36.305a12 12 0 0 0 -12 12v12h136z" fill="#f5a922"/><path d="m136 448h16v16h-16z" fill="#f79726"/><path d="m80 232h48v48h-48z" fill="#f9da62"/><path d="m176 240h-12a12 12 0 0 0 -12 12v20.305a63.7 63.7 0 0 1 -63.695 63.695h-36.305a12 12 0 0 0 -12 12v12h136z" fill="#f5a922"/><path d="m136 320h16v16h-16z" fill="#f79726"/><path d="m465.844 261.948-214.6 64.208-35.244-6.156 26.071-24.5 214.6-64.208a16 16 0 0 1 19.915 10.742 16 16 0 0 1 -10.742 19.914z" fill="#f8bc1e"/><path d="m377.674 330.08-4.586-15.329 55.33-16.554-2.639-57.663 15.8-4.727 3.108 67.9a8 8 0 0 1 -5.7 8.03z" fill="#f79726"/><path d="m284.643 281.069h15.999v32h-15.999z" fill="#f79726" transform="matrix(.958 -.287 .287 .958 -72.874 96.353)"/></g></svg>