<svg id="Capa_1" enable-background="new 0 0 512 512" height="512" viewBox="0 0 512 512" width="512" xmlns="http://www.w3.org/2000/svg"><g><g><path d="m422.268 504.5h-332.536c-8.991 0-16.279-7.289-16.279-16.279v-464.442c0-8.991 7.289-16.279 16.279-16.279h332.537c8.991 0 16.279 7.289 16.279 16.279v464.441c0 8.991-7.289 16.28-16.28 16.28z" fill="#cf9875"/></g><g><path d="m422.268 7.5h-30c8.991 0 16.279 7.289 16.279 16.279v464.441c0 8.991-7.289 16.279-16.279 16.279h30c8.991 0 16.279-7.289 16.279-16.279v-464.441c.001-8.99-7.288-16.279-16.279-16.279z" fill="#c7865b"/></g><g><path d="m53.948 119.9h404.103v291.096h-404.103z" fill="#f7f7f7" transform="matrix(0 1 -1 0 521.448 9.448)"/></g><g><path d="m371.548 63.396h30v404.103h-30z" fill="#e8e8e8"/></g><g><path d="m181.775 38.255h148.451v50.267h-148.451z" fill="#b4aaaa"/></g><g><path d="m300.225 38.255h30v50.267h-30z" fill="#9b9696"/></g><g><path d="m223.688 202.937h-49.851c-7.63 0-13.815-6.185-13.815-13.816v-49.85c0-7.63 6.185-13.815 13.815-13.815h49.851c7.63 0 13.816 6.185 13.816 13.815v49.85c0 7.631-6.185 13.816-13.816 13.816z" fill="#92e0c4"/></g><g><path d="m223.688 315.659h-49.851c-7.63 0-13.815-6.185-13.815-13.816v-49.85c0-7.63 6.185-13.816 13.815-13.816h49.851c7.63 0 13.816 6.186 13.816 13.816v49.85c0 7.63-6.185 13.816-13.816 13.816z" fill="#92e0c4"/></g><g><path d="m223.688 428.38h-49.851c-7.63 0-13.815-6.185-13.815-13.815v-49.85c0-7.63 6.185-13.816 13.815-13.816h49.851c7.63 0 13.816 6.185 13.816 13.816v49.85c0 7.629-6.185 13.815-13.816 13.815z" fill="#92e0c4"/></g><g><path d="m422.269 0h-332.538c-13.112 0-23.779 10.667-23.779 23.779v153.888c0 4.142 3.357 7.5 7.5 7.5s7.5-3.358 7.5-7.5v-153.888c0-4.841 3.938-8.779 8.779-8.779h332.537c4.841 0 8.779 3.938 8.779 8.779v464.441c0 4.841-3.939 8.779-8.779 8.779h-332.537c-4.841 0-8.779-3.939-8.779-8.779v-280.553c0-4.142-3.357-7.5-7.5-7.5s-7.5 3.358-7.5 7.5v280.554c0 13.112 10.667 23.779 23.779 23.779h332.537c13.112 0 23.779-10.668 23.779-23.779v-464.442c.001-13.112-10.666-23.779-23.778-23.779z"/><path d="m330.226 30.755h-148.452c-4.143 0-7.5 3.358-7.5 7.5v17.642h-63.822c-4.143 0-7.5 3.358-7.5 7.5v404.103c0 4.142 3.357 7.5 7.5 7.5h291.096c4.142 0 7.5-3.358 7.5-7.5v-142.323c0-4.142-3.358-7.5-7.5-7.5-4.143 0-7.5 3.358-7.5 7.5v134.823h-276.096v-389.104h56.322v17.626c0 4.142 3.357 7.5 7.5 7.5h148.451c4.143 0 7.5-3.358 7.5-7.5v-17.626h56.322v224.28c0 4.142 3.357 7.5 7.5 7.5 4.142 0 7.5-3.358 7.5-7.5v-231.78c0-4.142-3.358-7.5-7.5-7.5h-63.822v-17.641c.001-4.142-3.357-7.5-7.499-7.5zm-7.5 50.267h-133.452v-35.267h133.451v35.267z"/><path d="m245.004 139.271c0-11.753-9.563-21.316-21.315-21.316h-49.851c-11.753 0-21.315 9.563-21.315 21.316v49.85c0 11.753 9.563 21.316 21.315 21.316h49.851c11.753 0 21.315-9.563 21.315-21.316zm-15 49.851c0 3.482-2.833 6.316-6.315 6.316h-49.851c-3.482 0-6.315-2.833-6.315-6.316v-49.85c0-3.482 2.833-6.316 6.315-6.316h49.851c3.482 0 6.315 2.833 6.315 6.316z"/><path d="m205.516 150.185-11.248 12.113-2.449-2.45c-2.929-2.928-7.678-2.93-10.606-.001-2.93 2.929-2.93 7.678-.001 10.606l7.953 7.955c1.408 1.408 3.316 2.197 5.304 2.197.046 0 .093 0 .139-.001 2.037-.038 3.971-.902 5.357-2.395l16.544-17.817c2.818-3.036 2.643-7.781-.393-10.6-3.037-2.819-7.783-2.642-10.6.393z"/><path d="m276.981 141.251h35.653c4.143 0 7.5-3.358 7.5-7.5s-3.357-7.5-7.5-7.5h-35.653c-4.143 0-7.5 3.358-7.5 7.5s3.358 7.5 7.5 7.5z"/><path d="m276.981 202.143h35.653c4.143 0 7.5-3.358 7.5-7.5s-3.357-7.5-7.5-7.5h-35.653c-4.143 0-7.5 3.358-7.5 7.5s3.358 7.5 7.5 7.5z"/><path d="m355.977 156.697h-78.996c-4.143 0-7.5 3.358-7.5 7.5s3.357 7.5 7.5 7.5h78.996c4.143 0 7.5-3.358 7.5-7.5s-3.357-7.5-7.5-7.5z"/><path d="m245.004 251.993c0-11.753-9.563-21.316-21.315-21.316h-49.851c-11.753 0-21.315 9.563-21.315 21.316v49.85c0 11.753 9.563 21.316 21.315 21.316h49.851c11.753 0 21.315-9.563 21.315-21.316zm-15 49.85c0 3.482-2.833 6.316-6.315 6.316h-49.851c-3.482 0-6.315-2.833-6.315-6.316v-49.85c0-3.482 2.833-6.316 6.315-6.316h49.851c3.482 0 6.315 2.833 6.315 6.316z"/><path d="m205.516 262.906-11.248 12.113-2.449-2.45c-2.929-2.929-7.678-2.93-10.606-.001-2.93 2.929-2.93 7.678-.001 10.607l7.953 7.954c1.408 1.408 3.316 2.197 5.304 2.197.046 0 .093 0 .139-.001 2.037-.038 3.971-.902 5.357-2.395l16.544-17.817c2.818-3.036 2.643-7.781-.393-10.6-3.037-2.818-7.783-2.641-10.6.393z"/><path d="m276.981 253.972h35.653c4.143 0 7.5-3.358 7.5-7.5s-3.357-7.5-7.5-7.5h-35.653c-4.143 0-7.5 3.358-7.5 7.5s3.358 7.5 7.5 7.5z"/><path d="m276.981 314.864h35.653c4.143 0 7.5-3.358 7.5-7.5s-3.357-7.5-7.5-7.5h-35.653c-4.143 0-7.5 3.358-7.5 7.5s3.358 7.5 7.5 7.5z"/><path d="m355.977 269.418h-78.996c-4.143 0-7.5 3.358-7.5 7.5s3.357 7.5 7.5 7.5h78.996c4.143 0 7.5-3.358 7.5-7.5 0-4.143-3.357-7.5-7.5-7.5z"/><path d="m223.688 343.398h-49.851c-11.753 0-21.315 9.563-21.315 21.316v49.85c0 11.753 9.563 21.316 21.315 21.316h49.851c11.753 0 21.315-9.563 21.315-21.316v-49.85c.001-11.753-9.562-21.316-21.315-21.316zm6.316 71.166c0 3.482-2.833 6.316-6.315 6.316h-49.851c-3.482 0-6.315-2.834-6.315-6.316v-49.85c0-3.482 2.833-6.316 6.315-6.316h49.851c3.482 0 6.315 2.833 6.315 6.316z"/><path d="m205.516 375.627-11.248 12.113-2.449-2.45c-2.929-2.928-7.678-2.93-10.606 0-2.93 2.929-2.93 7.678-.001 10.606l7.953 7.955c1.408 1.408 3.316 2.197 5.304 2.197.046 0 .093 0 .139-.001 2.037-.038 3.971-.902 5.357-2.395l16.544-17.817c2.818-3.036 2.643-7.781-.393-10.6-3.037-2.819-7.783-2.642-10.6.392z"/><path d="m276.981 366.693h35.653c4.143 0 7.5-3.358 7.5-7.5s-3.357-7.5-7.5-7.5h-35.653c-4.143 0-7.5 3.358-7.5 7.5s3.358 7.5 7.5 7.5z"/><path d="m276.981 412.585c-4.143 0-7.5 3.358-7.5 7.5s3.357 7.5 7.5 7.5h35.653c4.143 0 7.5-3.358 7.5-7.5s-3.357-7.5-7.5-7.5z"/><path d="m363.477 389.639c0-4.142-3.357-7.5-7.5-7.5h-78.996c-4.143 0-7.5 3.358-7.5 7.5s3.357 7.5 7.5 7.5h78.996c4.143 0 7.5-3.358 7.5-7.5z"/></g></g></svg>