<svg id="line_color" height="512" viewBox="0 0 74 74" width="512" xmlns="http://www.w3.org/2000/svg" data-name="line color"><circle cx="37" cy="37" fill="#e7aa6c" r="34"/><path d="m71 37a34 34 0 0 1 -61 20.66 34 34 0 0 0 51.31-44.43 33.869 33.869 0 0 1 9.69 23.77z" fill="#d09865"/><circle cx="37" cy="37" fill="#eeefee" r="27.292"/><g fill="#323c6b"><path d="m37 15.494a.5.5 0 0 1 -.5-.5v-1.827a.5.5 0 0 1 1 0v1.827a.5.5 0 0 1 -.5.5z"/><path d="m37 61.333a.5.5 0 0 1 -.5-.5v-1.827a.5.5 0 0 1 1 0v1.827a.5.5 0 0 1 -.5.5z"/><path d="m60.833 37.5h-1.827a.5.5 0 0 1 0-1h1.827a.5.5 0 0 1 0 1z"/><path d="m14.994 37.5h-1.827a.5.5 0 0 1 0-1h1.827a.5.5 0 0 1 0 1z"/><path d="m51.5 37.5h-11.79a.5.5 0 0 1 0-1h11.79a.5.5 0 0 1 0 1z"/><path d="m35.521 35.23a.5.5 0 0 1 -.421-.23l-9.02-13.85a.5.5 0 1 1 .838-.546l9.02 13.85a.5.5 0 0 1 -.418.773z"/></g><circle cx="37" cy="37" fill="#9297ab" r="3.083"/><path d="m37 40.583a3.583 3.583 0 1 1 3.583-3.583 3.587 3.587 0 0 1 -3.583 3.583zm0-6.166a2.583 2.583 0 1 0 2.583 2.583 2.586 2.586 0 0 0 -2.583-2.583z" fill="#323c6b"/><path d="m62.851 63.938a.5.5 0 0 1 -.35-.858c.176-.171.349-.346.52-.52a.5.5 0 0 1 .715.7c-.177.18-.355.36-.536.536a.5.5 0 0 1 -.349.142z" fill="#323c6b"/><path d="m52.682 71a.5.5 0 0 1 -.213-.952 36.69 36.69 0 0 0 7.762-4.933.5.5 0 1 1 .638.77 37.688 37.688 0 0 1 -7.969 5.067.493.493 0 0 1 -.218.048z" fill="#323c6b"/><path d="m6.5 16.625a.5.5 0 0 1 -.283-.088.5.5 0 0 1 -.129-.695 37.943 37.943 0 0 1 5.648-6.5.5.5 0 0 1 .675.739 36.908 36.908 0 0 0 -5.5 6.33.5.5 0 0 1 -.411.214z" fill="#323c6b"/><path d="m14.667 8.035a.5.5 0 0 1 -.3-.9c.2-.154.412-.3.619-.452l.265-.191a.5.5 0 1 1 .587.809l-.268.194c-.2.144-.4.288-.6.437a.5.5 0 0 1 -.303.103z" fill="#323c6b"/><path d="m37 64.792a27.792 27.792 0 1 1 27.792-27.792 27.824 27.824 0 0 1 -27.792 27.792zm0-54.584a26.792 26.792 0 1 0 26.792 26.792 26.823 26.823 0 0 0 -26.792-26.792z" fill="#323c6b"/><path d="m59.066 15.983a.648.648 0 0 1 -.463-.194 30.445 30.445 0 0 0 -7.285-5.475.65.65 0 0 1 .616-1.144 31.743 31.743 0 0 1 7.6 5.708.649.649 0 0 1 -.464 1.105z" fill="#fff"/><path d="m62.148 20.066a.647.647 0 0 1 -.555-.311q-.347-.565-.715-1.116a.65.65 0 1 1 1.079-.724q.386.573.745 1.163a.65.65 0 0 1 -.216.893.641.641 0 0 1 -.338.095z" fill="#fff"/><path d="m37 71.5a34.5 34.5 0 1 1 34.5-34.5 34.54 34.54 0 0 1 -34.5 34.5zm0-68a33.5 33.5 0 1 0 33.5 33.5 33.538 33.538 0 0 0 -33.5-33.5z" fill="#323c6b"/></svg>